<?xml version="1.0" encoding="utf-8"?>
<!-- Generator: Adobe Illustrator 16.0.0, SVG Export Plug-In . SVG Version: 6.00 Build 0)  -->
<!DOCTYPE svg PUBLIC "-//W3C//DTD SVG 1.1//EN" "http://www.w3.org/Graphics/SVG/1.1/DTD/svg11.dtd">
<svg version="1.1" id="Layer_1" xmlns="http://www.w3.org/2000/svg" xmlns:xlink="http://www.w3.org/1999/xlink" x="0px" y="0px"
	 width="360px" height="360px" viewBox="0 0 360 360" enable-background="new 0 0 360 360" xml:space="preserve">
<linearGradient id="SVGID_1_" gradientUnits="userSpaceOnUse" x1="182.9199" y1="13.8618" x2="182.9199" y2="346.1382">
	<stop  offset="0" style="stop-color:#FFF33B"/>
	<stop  offset="0.0775" style="stop-color:#FFE029"/>
	<stop  offset="0.1697" style="stop-color:#FFD218"/>
	<stop  offset="0.2647" style="stop-color:#FEC90F"/>
	<stop  offset="0.3659" style="stop-color:#FDC70C"/>
	<stop  offset="0.6926" style="stop-color:#ED683C"/>
	<stop  offset="0.89" style="stop-color:#E93E3A"/>
</linearGradient>
<path fill="url(#SVGID_1_)" d="M182.912,13.862c-61.739,0-111.81,56.318-111.81,125.78c0,0.202,0.05,18.067,12.191,50.567
	c1.341,3.635,2.858,7.464,4.536,11.466l20.983-12.113c-1.289-3.09-2.444-6.046-3.489-8.843c-9.469-25.31-9.494-39.23-9.494-39.382
	c0-54.091,39.002-97.949,87.083-97.949c25.63,0,48.661,12.444,64.585,32.255l23.466-13.548
	C250.495,32.729,218.665,13.862,182.912,13.862z M292.825,116.432c-0.667-4.038-1.508-8.009-2.515-11.895
	c-0.892-3.483-1.919-6.906-3.077-10.253l-22.627,13.059v0.009c0.724,2.183,1.375,4.4,1.956,6.652
	c0.788,3.018,1.436,6.112,1.962,9.265c0.97,5.85,1.472,11.913,1.472,18.067c0,0-0.1,60.914-87.084,160.819
	c-26.726-30.629-45.256-57.591-58.097-80.254l-21.364,12.342c16.567,30.84,41.605,68.499,79.461,111.895
	c111.69-128.282,111.824-206.496,111.824-206.496C294.736,131.725,294.074,123.96,292.825,116.432z"/>
<path d="M311.642,69.05v0.008c-0.816,1.417-2.006,2.647-3.524,3.524l-165.716,95.674c-4.61,2.665-10.512,1.078-13.176-3.535
	c-0.877-1.518-1.298-3.178-1.298-4.812c0-1.694,0.446-3.374,1.298-4.84c0.818-1.424,2.014-2.655,3.531-3.533l165.709-95.674
	c4.612-2.663,10.512-1.078,13.177,3.542C313.431,62.5,313.311,66.167,311.642,69.05z"/>
<path d="M236.615,146.209c0,0,0,0,0,0.007c-0.815,1.427-2.005,2.658-3.53,3.535L99.572,226.832l-32.196,18.593
	c-4.612,2.662-10.513,1.078-13.178-3.533v-0.009c-0.876-1.525-1.298-3.18-1.298-4.813c0-1.698,0.447-3.366,1.298-4.833
	c0.819-1.424,2.008-2.655,3.532-3.533l165.707-95.671c4.612-2.665,10.515-1.08,13.179,3.531
	C238.402,139.658,238.283,143.326,236.615,146.209z"/>
<g>
</g>
<g>
</g>
<g>
</g>
<g>
</g>
<g>
</g>
<g>
</g>
</svg>
