<?xml version="1.0" encoding="utf-8"?>
<!-- Generator: Adobe Illustrator 17.0.0, SVG Export Plug-In . SVG Version: 6.00 Build 0)  -->
<!DOCTYPE svg PUBLIC "-//W3C//DTD SVG 1.1//EN" "http://www.w3.org/Graphics/SVG/1.1/DTD/svg11.dtd">
<svg version="1.1" id="Layer_1" xmlns="http://www.w3.org/2000/svg" xmlns:xlink="http://www.w3.org/1999/xlink" x="0px" y="0px"
	 width="100px" height="100px" viewBox="0 0 100 100" enable-background="new 0 0 100 100" xml:space="preserve">
<path fill="#FFFFFF" d="M2.099,83.515c0-22.343,0-44.687,0-67.03c0.057-0.189,0.129-0.376,0.17-0.569
	C3.733,9.032,7.825,4.573,14.58,2.575c0.627-0.186,1.27-0.318,1.905-0.476c22.343,0,44.687,0,67.03,0
	c0.19,0.057,0.376,0.128,0.569,0.169c6.857,1.45,11.301,5.529,13.323,12.237c0.196,0.65,0.33,1.319,0.493,1.979
	c0,22.343,0,44.687,0,67.03c-0.057,0.189-0.129,0.375-0.17,0.568c-1.452,6.855-5.53,11.301-12.237,13.326
	c-0.65,0.196-1.318,0.329-1.978,0.492c-6.172,0-12.345,0-18.517,0c-0.022-0.252-0.062-0.504-0.062-0.756
	c-0.003-11.501-0.003-23.001-0.001-34.502c0-0.273,0.023-0.546,0.039-0.912c0.351,0,0.649,0,0.947,0
	c4.692,0,9.384-0.012,14.076,0.014c0.679,0.004,0.916-0.152,0.911-0.883c-0.034-4.768-0.017-9.537-0.019-14.306
	c0-0.247-0.026-0.494-0.046-0.836c-5.319,0-10.581,0-15.831,0c0-2.517-0.12-4.942,0.041-7.349c0.113-1.687,1.379-3.38,3.758-3.3
	c3.744,0.126,7.496,0.024,11.245,0.043c0.589,0.003,0.854-0.104,0.85-0.788c-0.029-4.819-0.014-9.639-0.017-14.459
	c0-0.222-0.028-0.445-0.049-0.757c-0.314,0-0.587,0-0.859,0c-3.825,0-7.65,0.01-11.475-0.003c-3.544-0.012-6.776,0.95-9.674,3.009
	c-4.807,3.415-7.59,8.134-8.483,13.873c-0.424,2.723-0.254,5.539-0.348,8.312c-0.015,0.452-0.002,0.904-0.002,1.457
	c-3.937,0-7.793,0-11.667,0c-0.027,0.275-0.059,0.449-0.059,0.624c-0.003,4.871,0.009,9.741-0.015,14.612
	c-0.003,0.65,0.268,0.748,0.82,0.746c3.315-0.017,6.63-0.009,9.945-0.009c0.299,0,0.598,0,0.98,0c0,12.111,0,24.14,0,36.17
	c-11.172,0-22.343,0-33.515,0c-0.189-0.057-0.375-0.128-0.568-0.169C9.093,96.288,4.65,92.239,2.613,85.565
	C2.408,84.892,2.269,84.199,2.099,83.515z"/>
</svg>
