<?xml version="1.0" encoding="utf-8"?>
<!-- Generator: Adobe Illustrator 17.0.0, SVG Export Plug-In . SVG Version: 6.00 Build 0)  -->
<!DOCTYPE svg PUBLIC "-//W3C//DTD SVG 1.1//EN" "http://www.w3.org/Graphics/SVG/1.1/DTD/svg11.dtd">
<svg version="1.1" id="Layer_1" xmlns="http://www.w3.org/2000/svg" xmlns:xlink="http://www.w3.org/1999/xlink" x="0px" y="0px"
	 width="320.985px" height="83.118px" viewBox="0 0 320.985 83.118" enable-background="new 0 0 320.985 83.118"
	 xml:space="preserve">
<g>
	<path d="M28.747,61.718c-0.368-1.162-0.613-2.51-0.735-4.041c-1.409,1.593-3.276,2.863-5.603,3.812
		c-2.328,0.948-5.021,1.424-8.082,1.424c-5.205,0-9.017-1.148-11.435-3.444c-2.419-2.296-3.628-5.281-3.628-8.955
		c0-3.244,0.52-5.832,1.562-7.761c1.041-1.929,2.479-3.444,4.316-4.546c1.837-1.103,4.025-1.913,6.567-2.434
		c2.54-0.52,5.311-0.995,8.312-1.424c2.999-0.428,5.02-0.994,6.062-1.699c1.041-0.703,1.561-1.852,1.561-3.444
		c0-1.469-0.688-2.617-2.066-3.444c-1.377-0.826-3.23-1.239-5.556-1.239c-2.755,0-4.73,0.612-5.924,1.837
		c-1.194,1.226-1.945,2.847-2.25,4.867H0.735c0.06-2.326,0.443-4.469,1.148-6.429c0.703-1.959,1.837-3.643,3.398-5.052
		c1.562-1.407,3.597-2.494,6.108-3.26c2.51-0.766,5.571-1.148,9.184-1.148c3.55,0,6.567,0.399,9.046,1.194
		c2.48,0.796,4.469,1.944,5.97,3.444c1.5,1.501,2.586,3.367,3.26,5.602c0.673,2.236,1.01,4.762,1.01,7.577v28.563
		C39.859,61.718,28.747,61.718,28.747,61.718z M27.92,39.585c-0.613,0.612-1.501,1.102-2.664,1.469
		c-1.164,0.368-2.847,0.767-5.051,1.194c-3.43,0.675-5.786,1.531-7.072,2.571c-1.286,1.042-1.929,2.542-1.929,4.501
		c0,3.368,1.929,5.051,5.786,5.051c1.53,0,2.954-0.26,4.271-0.78c1.316-0.52,2.448-1.225,3.398-2.112
		c0.949-0.887,1.714-1.929,2.296-3.123c0.581-1.193,0.873-2.464,0.873-3.812L27.92,39.585z"/>
	<path d="M97.628,61.718V34.349c0-2.756-0.643-4.99-1.929-6.705c-1.286-1.713-3-2.571-5.143-2.571c-2.205,0-4.027,0.919-5.465,2.756
		c-1.439,1.836-2.158,4.133-2.158,6.888v27.002H70.994V34.533c0-1.837-0.124-3.337-0.368-4.5c-0.245-1.163-0.659-2.081-1.24-2.756
		c-0.583-0.673-1.332-1.147-2.25-1.423s-2.021-0.414-3.307-0.414c-4.837,0-7.255,2.939-7.255,8.817v27.461h-11.94V16.532h11.205
		v6.612c1.53-2.999,3.367-5.051,5.511-6.153c2.143-1.103,4.714-1.653,7.715-1.653c1.53,0,2.893,0.123,4.087,0.367
		c1.194,0.246,2.265,0.659,3.214,1.24c0.949,0.583,1.851,1.332,2.709,2.25c0.856,0.919,1.713,2.021,2.572,3.307
		c1.224-2.51,2.847-4.331,4.868-5.465c2.021-1.132,4.469-1.699,7.347-1.699c2.265,0,4.347,0.383,6.246,1.148
		c1.897,0.766,3.52,1.837,4.868,3.214c1.346,1.378,2.402,2.985,3.168,4.822c0.765,1.837,1.148,3.797,1.148,5.878v31.318H97.628z"/>
	<path d="M114.067,83.118V16.532h11.48l0.092,5.511c2.755-4.469,6.949-6.705,12.583-6.705c2.816,0,5.433,0.551,7.853,1.653
		c2.418,1.103,4.485,2.695,6.2,4.775c1.713,2.083,3.061,4.624,4.041,7.623c0.979,3.001,1.469,6.399,1.469,10.195
		c0,3.43-0.413,6.566-1.24,9.413c-0.827,2.848-2.036,5.313-3.628,7.394c-1.593,2.082-3.536,3.689-5.832,4.822
		c-2.296,1.132-4.914,1.699-7.853,1.699c-5.572,0-10.042-2.356-13.409-7.072v27.277h-11.756L114.067,83.118L114.067,83.118z
		 M135.375,52.717c6.857,0,10.287-4.652,10.287-13.96c0-4.041-0.95-7.331-2.847-9.873c-1.898-2.54-4.348-3.812-7.348-3.812
		c-2.878,0-5.281,1.194-7.209,3.582s-2.893,5.511-2.893,9.368C125.364,47.82,128.701,52.717,135.375,52.717z"/>
	<path d="M190.572,61.718V33.707c0-3.429-0.598-5.771-1.791-7.026c-1.193-1.254-3.168-1.883-5.924-1.883
		c-1.471,0-2.787,0.291-3.949,0.872c-1.164,0.583-2.145,1.378-2.939,2.389c-0.797,1.01-1.393,2.174-1.791,3.489
		c-0.398,1.317-0.598,2.741-0.598,4.271v25.899h-11.939V0h11.939v22.41c0.428-0.979,1.088-1.913,1.975-2.802
		c0.889-0.887,1.914-1.637,3.078-2.25c1.162-0.611,2.447-1.102,3.857-1.47c1.408-0.367,2.877-0.551,4.408-0.551
		c4.652,0,8.434,1.271,11.342,3.812c2.908,2.542,4.363,6.077,4.363,10.608v31.961H190.572z"/>
	<path d="M218.307,42.248c0.184,3.43,1.178,6.153,2.984,8.174s4.18,3.031,7.119,3.031c1.959,0,3.688-0.443,5.189-1.332
		c1.498-0.887,2.463-2.127,2.893-3.72h12.307c-1.408,4.654-3.857,8.236-7.348,10.746c-3.49,2.511-7.654,3.766-12.49,3.766
		c-15.063,0-22.594-8.204-22.594-24.614c0-3.49,0.49-6.643,1.469-9.46c0.98-2.815,2.402-5.235,4.271-7.256
		c1.867-2.021,4.146-3.565,6.842-4.638c2.693-1.07,5.787-1.607,9.277-1.607c6.98,0,12.26,2.236,15.842,6.705
		c3.582,4.47,5.373,11.204,5.373,20.205C249.441,42.248,218.307,42.248,218.307,42.248z M237.135,34.716
		c-0.063-1.653-0.354-3.106-0.873-4.362c-0.52-1.254-1.209-2.296-2.066-3.123c-0.857-0.826-1.836-1.438-2.938-1.837
		c-1.104-0.397-2.236-0.597-3.398-0.597c-2.389,0-4.455,0.872-6.199,2.617c-1.746,1.745-2.742,4.179-2.986,7.302H237.135z"/>
	<path d="M253.115,61.718V16.532h11.205v5.419c0.979-1.53,2.004-2.725,3.076-3.582c1.07-0.857,2.172-1.516,3.307-1.975
		c1.133-0.46,2.279-0.749,3.443-0.873c1.162-0.122,2.357-0.184,3.582-0.184h1.563v12.215c-1.104-0.184-2.205-0.275-3.307-0.275
		c-7.287,0-10.93,3.644-10.93,10.93v23.512L253.115,61.718L253.115,61.718z"/>
	<path d="M290.586,42.248c0.184,3.43,1.178,6.153,2.984,8.174s4.18,3.031,7.119,3.031c1.959,0,3.688-0.443,5.189-1.332
		c1.498-0.887,2.463-2.127,2.893-3.72h12.307c-1.408,4.654-3.857,8.236-7.348,10.746c-3.49,2.511-7.654,3.766-12.49,3.766
		c-15.063,0-22.594-8.204-22.594-24.614c0-3.49,0.49-6.643,1.469-9.46c0.98-2.815,2.402-5.235,4.271-7.256
		c1.867-2.021,4.146-3.565,6.842-4.638c2.693-1.07,5.787-1.607,9.277-1.607c6.98,0,12.26,2.236,15.842,6.705
		c3.582,4.47,5.373,11.204,5.373,20.205C321.72,42.248,290.586,42.248,290.586,42.248z M309.414,34.716
		c-0.063-1.653-0.354-3.106-0.873-4.362c-0.52-1.254-1.209-2.296-2.066-3.123c-0.857-0.826-1.836-1.438-2.938-1.837
		c-1.104-0.397-2.236-0.597-3.398-0.597c-2.389,0-4.455,0.872-6.199,2.617c-1.746,1.745-2.742,4.179-2.986,7.302H309.414z"/>
</g>
</svg>
