<?xml version="1.0" encoding="utf-8"?>
<!-- Generator: Adobe Illustrator 17.0.0, SVG Export Plug-In . SVG Version: 6.00 Build 0)  -->
<!DOCTYPE svg PUBLIC "-//W3C//DTD SVG 1.1//EN" "http://www.w3.org/Graphics/SVG/1.1/DTD/svg11.dtd">
<svg version="1.1" id="Layer_2" xmlns="http://www.w3.org/2000/svg" xmlns:xlink="http://www.w3.org/1999/xlink" x="0px" y="0px"
	 width="454.833px" height="100px" viewBox="0 0 454.833 100" enable-background="new 0 0 454.833 100" xml:space="preserve">
<path d="M35.849,81.605c5.679,2.183,8.175,6.046,7.183,11.103c-0.842,4.292-4.901,7.534-9.275,7.408
	c-4.67-0.135-8.374-3.529-9.074-8.314c-0.65-4.444,2.25-8.483,7.227-10.122c0-2.553,0.157-5.101-0.079-7.612
	c-0.091-0.974-0.917-2.023-1.676-2.765c-3.678-3.596-7.444-7.101-11.184-10.634c-2.381-2.249-3.66-4.943-3.554-8.28
	c0.076-2.403-0.004-4.811,0.027-7.216c0.008-0.659-0.149-1.033-0.793-1.373c-2.364-1.25-3.445-3.819-2.759-6.283
	c0.7-2.512,2.966-4.233,5.491-4.17c2.542,0.064,4.72,1.859,5.33,4.393c0.568,2.364-0.554,4.866-2.839,6.064
	c-0.643,0.337-0.804,0.708-0.794,1.369c0.039,2.59,0.031,5.181,0.033,7.772c0.002,1.792,0.609,3.291,1.944,4.537
	c3.382,3.156,6.723,6.357,10.082,9.538c0.239,0.226,0.494,0.434,0.873,0.765c0-18.915,0-37.68,0-56.612c-1.404,0-2.85,0-4.52,0
	C29.686,7.374,31.747,3.801,33.94,0c2.17,3.753,4.253,7.358,6.429,11.122c-1.605,0-2.998,0-4.479,0c0,14.238,0,28.386,0,42.701
	c0.34-0.284,0.588-0.469,0.813-0.681c3.392-3.2,6.771-6.414,10.176-9.599c1.081-1.011,1.79-2.23,1.831-3.676
	c0.085-3.025,0.026-6.054,0.026-9.194c-1.194,0-2.359,0-3.607,0c0-3.751,0-7.39,0-11.107c3.638,0,7.275,0,10.975,0
	c0,3.652,0,7.265,0,11.007c-1.151,0-2.314,0-3.634,0c0,1.33,0.002,2.537,0,3.744c-0.004,1.776,0.044,3.554-0.032,5.327
	c-0.12,2.808-1.399,5.099-3.396,7.003c-3.751,3.575-7.508,7.143-11.295,10.679c-1.27,1.185-1.953,2.604-1.959,4.308
	c-0.022,6.551-0.006,13.102-0.002,19.652C35.786,81.394,35.828,81.502,35.849,81.605z"/>
<g>
	<path d="M141.563,41.019c2.891,2.866,4.335,7.114,4.335,12.747v22.603h-7.114V54.58c0-3.804-0.877-6.669-2.631-8.597
		c-1.754-1.927-4.261-2.89-7.521-2.89c-3.607,0-6.473,1.125-8.597,3.372c-2.125,2.249-3.187,5.472-3.187,9.671v20.231h-7.114V54.58
		c0-3.804-0.878-6.669-2.631-8.597c-1.754-1.927-4.261-2.89-7.521-2.89c-3.607,0-6.474,1.125-8.597,3.372
		c-2.125,2.249-3.187,5.472-3.187,9.671v20.231h-7.114V37.091h6.817v5.854c1.433-2.025,3.31-3.569,5.632-4.632
		c2.322-1.062,4.966-1.593,7.93-1.593c3.063,0,5.78,0.618,8.152,1.853c2.371,1.236,4.198,3.039,5.483,5.41
		c1.482-2.272,3.545-4.051,6.188-5.336c2.643-1.284,5.619-1.927,8.93-1.927C134.757,36.72,138.673,38.154,141.563,41.019z"/>
	<path d="M159.126,28.198c-0.914-0.889-1.37-1.976-1.37-3.261c0-1.284,0.456-2.383,1.37-3.298c0.914-0.914,2.063-1.371,3.446-1.371
		c1.383,0,2.531,0.433,3.446,1.297c0.913,0.865,1.371,1.939,1.371,3.224c0,1.334-0.458,2.458-1.371,3.372
		c-0.915,0.915-2.063,1.371-3.446,1.371C161.188,29.532,160.04,29.087,159.126,28.198z M159.016,37.091h7.114v39.277h-7.114V37.091z
		"/>
	<path d="M186.101,74.219c-3.139-1.729-5.596-4.112-7.374-7.151c-1.778-3.038-2.668-6.484-2.668-10.338s0.89-7.3,2.668-10.338
		c1.778-3.038,4.235-5.41,7.374-7.114c3.137-1.705,6.706-2.557,10.708-2.557c3.558,0,6.731,0.717,9.523,2.149
		c2.79,1.434,4.952,3.509,6.484,6.225l-5.41,3.483c-1.235-1.877-2.768-3.285-4.595-4.224c-1.828-0.938-3.854-1.408-6.077-1.408
		c-2.569,0-4.879,0.568-6.929,1.705c-2.051,1.137-3.656,2.754-4.817,4.854c-1.161,2.101-1.741,4.509-1.741,7.226
		c0,2.768,0.58,5.2,1.741,7.3c1.161,2.101,2.767,3.718,4.817,4.854c2.05,1.137,4.359,1.704,6.929,1.704
		c2.224,0,4.249-0.469,6.077-1.408c1.827-0.938,3.359-2.346,4.595-4.224l5.41,3.408c-1.532,2.718-3.694,4.806-6.484,6.263
		c-2.792,1.457-5.966,2.186-9.523,2.186C192.807,76.813,189.237,75.949,186.101,74.219z"/>
	<path d="M234.308,38.499c2.42-1.186,5.359-1.778,8.818-1.778v6.892c-0.396-0.049-0.938-0.074-1.63-0.074
		c-3.854,0-6.881,1.148-9.078,3.446c-2.199,2.297-3.298,5.571-3.298,9.82v19.564h-7.114V37.091h6.817v6.596
		C230.058,41.415,231.886,39.685,234.308,38.499z"/>
	<path d="M257.8,74.219c-3.112-1.729-5.547-4.112-7.3-7.151c-1.754-3.038-2.631-6.484-2.631-10.338s0.877-7.3,2.631-10.338
		c1.753-3.038,4.188-5.41,7.3-7.114s6.62-2.557,10.523-2.557c3.902,0,7.397,0.852,10.486,2.557c3.087,1.705,5.508,4.076,7.262,7.114
		c1.754,3.039,2.631,6.485,2.631,10.338s-0.877,7.3-2.631,10.338c-1.754,3.039-4.175,5.423-7.262,7.151
		c-3.089,1.73-6.584,2.594-10.486,2.594C264.42,76.813,260.912,75.949,257.8,74.219z M275.104,68.847
		c2.001-1.161,3.569-2.791,4.706-4.892c1.136-2.1,1.704-4.508,1.704-7.226c0-2.717-0.568-5.125-1.704-7.226
		c-1.137-2.1-2.705-3.717-4.706-4.854c-2.001-1.136-4.261-1.705-6.78-1.705s-4.78,0.568-6.781,1.705s-3.582,2.754-4.743,4.854
		c-1.161,2.101-1.741,4.509-1.741,7.226c0,2.718,0.58,5.126,1.741,7.226c1.161,2.101,2.742,3.73,4.743,4.892
		s4.262,1.741,6.781,1.741S273.103,70.008,275.104,68.847z"/>
	<path d="M303.523,71.032c-3.854-3.952-5.78-9.634-5.78-17.045V24.493h7.41v29.199c0,11.116,4.866,16.674,14.6,16.674
		c4.743,0,8.374-1.371,10.894-4.112c2.52-2.742,3.779-6.93,3.779-12.562V24.493h7.188v29.495c0,7.461-1.927,13.154-5.78,17.082
		s-9.239,5.892-16.155,5.892C312.762,76.961,307.377,74.985,303.523,71.032z"/>
	<path d="M360.622,75.146c-3.631-1.21-6.484-2.779-8.56-4.706l2.742-5.78c1.976,1.778,4.508,3.224,7.596,4.335
		c3.088,1.112,6.263,1.668,9.523,1.668c4.298,0,7.509-0.729,9.634-2.187c2.124-1.456,3.187-3.396,3.187-5.817
		c0-1.778-0.581-3.224-1.741-4.335c-1.162-1.112-2.594-1.964-4.299-2.558c-1.704-0.593-4.112-1.26-7.226-2
		c-3.903-0.938-7.053-1.878-9.448-2.817c-2.396-0.938-4.446-2.383-6.151-4.335c-1.704-1.951-2.557-4.582-2.557-7.893
		c0-2.767,0.729-5.262,2.187-7.485c1.457-2.223,3.668-4.002,6.633-5.336c2.964-1.334,6.644-2.001,11.042-2.001
		c3.063,0,6.077,0.396,9.041,1.186c2.964,0.791,5.508,1.927,7.633,3.409l-2.445,5.929c-2.175-1.382-4.496-2.433-6.966-3.149
		c-2.472-0.716-4.892-1.075-7.263-1.075c-4.2,0-7.35,0.767-9.449,2.297c-2.101,1.532-3.149,3.508-3.149,5.929
		c0,1.778,0.593,3.224,1.778,4.335c1.187,1.112,2.655,1.977,4.41,2.594c1.753,0.619,4.137,1.273,7.151,1.964
		c3.902,0.939,7.04,1.878,9.411,2.816c2.372,0.939,4.409,2.371,6.114,4.298c1.704,1.928,2.557,4.521,2.557,7.782
		c0,2.718-0.741,5.2-2.224,7.447c-1.481,2.249-3.73,4.027-6.743,5.336c-3.015,1.31-6.72,1.964-11.116,1.964
		C368.021,76.961,364.254,76.356,360.622,75.146z"/>
	<path d="M444.844,54.024c1.729,2.199,2.594,4.979,2.594,8.338c0,4.496-1.692,7.954-5.076,10.375
		c-3.385,2.421-8.313,3.631-14.784,3.631h-24.752V24.493h23.27c5.929,0,10.511,1.186,13.747,3.557
		c3.235,2.371,4.854,5.657,4.854,9.856c0,2.718-0.63,5.065-1.89,7.041c-1.261,1.977-2.953,3.483-5.077,4.521
		C440.743,50.307,443.114,51.827,444.844,54.024z M410.236,30.495v16.6h15.191c3.804,0,6.731-0.704,8.782-2.112
		c2.049-1.408,3.075-3.471,3.075-6.188s-1.026-4.78-3.075-6.188c-2.051-1.408-4.979-2.112-8.782-2.112
		C425.427,30.495,410.236,30.495,410.236,30.495z M436.767,68.29c2.123-1.382,3.187-3.557,3.187-6.521
		c0-5.78-4.225-8.67-12.673-8.67h-17.044v17.267h17.044C431.479,70.365,434.642,69.674,436.767,68.29z"/>
</g>
</svg>
