<?xml version="1.0" encoding="utf-8"?>
<!-- Generator: Adobe Illustrator 17.0.0, SVG Export Plug-In . SVG Version: 6.00 Build 0)  -->
<!DOCTYPE svg PUBLIC "-//W3C//DTD SVG 1.1//EN" "http://www.w3.org/Graphics/SVG/1.1/DTD/svg11.dtd">
<svg version="1.1" id="Layer_1" xmlns="http://www.w3.org/2000/svg" xmlns:xlink="http://www.w3.org/1999/xlink" x="0px" y="0px"
	 width="614px" height="100px" viewBox="0 0 614 100" enable-background="new 0 0 614 100" xml:space="preserve">
<g>
	<path d="M131.632,4.572c27.064,0,54.131-0.241,81.192,0.082c19.086,0.228,35.723,16.181,39.198,36.69
		c4.336,25.596-10.639,49.484-34.056,54.037c-3.714,0.722-7.583,0.679-11.38,0.682c-51.592,0.042-103.184,0.063-154.776,0.013
		c-22.034-0.021-40.198-18.848-41.704-43.025C8.635,29.445,24.581,8.054,46.142,4.814c2.417-0.363,4.893-0.356,7.341-0.358
		c26.05-0.024,52.099-0.015,78.149-0.015C131.632,4.485,131.632,4.528,131.632,4.572z M132.603,13.234c0-0.015,0-0.03,0-0.045
		c-26.729,0-53.457-0.032-80.186,0.011c-18.974,0.03-33.512,15.046-34.459,35.474C17.07,67.856,30.086,84.659,47.571,86.882
		c1.425,0.181,2.862,0.367,4.293,0.368c53.034,0.019,106.068,0.068,159.102-0.007c25.017-0.035,41.55-28.169,30.81-52.656
		c-6.246-14.241-17.055-21.3-31.525-21.335C184.369,13.189,158.486,13.234,132.603,13.234z"/>
	<path d="M131.454,61.7c-29.021,0.001-58.043,0.01-87.064-0.006c-7.485-0.004-12.448-4.63-12.441-11.5
		c0.007-6.81,5.083-11.543,12.48-11.545c58.043-0.015,116.085-0.021,174.128-0.013c7.31,0.001,12.321,4.838,12.272,11.734
		c-0.048,6.779-4.933,11.317-12.311,11.322C189.497,61.71,160.475,61.699,131.454,61.7z"/>
</g>
<g>
	<path d="M293.075,78.729c-5.283-5.418-7.925-13.207-7.925-23.367V14.926h10.159v40.029c0,15.239,6.671,22.859,20.016,22.859
		c6.502,0,11.48-1.88,14.935-5.639s5.182-9.499,5.182-17.221V14.926h9.854v40.436c0,10.228-2.642,18.033-7.924,23.418
		c-5.283,5.385-12.667,8.077-22.148,8.077C305.739,86.856,298.357,84.148,293.075,78.729z"/>
	<path d="M371.355,84.367c-4.979-1.658-8.89-3.81-11.734-6.451l3.759-7.925c2.708,2.438,6.18,4.42,10.414,5.943
		c4.231,1.524,8.585,2.286,13.055,2.286c5.893,0,10.295-0.998,13.208-2.997c2.911-1.997,4.369-4.656,4.369-7.976
		c0-2.438-0.797-4.419-2.388-5.943c-1.593-1.524-3.556-2.692-5.893-3.505c-2.337-0.813-5.639-1.728-9.906-2.743
		c-5.352-1.286-9.669-2.573-12.954-3.861c-3.285-1.285-6.096-3.266-8.433-5.943c-2.336-2.675-3.505-6.281-3.505-10.82
		c0-3.792,0.999-7.214,2.997-10.262c1.997-3.048,5.029-5.486,9.094-7.315c4.063-1.829,9.108-2.743,15.138-2.743
		c4.199,0,8.331,0.543,12.395,1.625c4.064,1.084,7.552,2.642,10.465,4.674l-3.353,8.127c-2.981-1.895-6.164-3.335-9.55-4.318
		c-3.388-0.981-6.706-1.473-9.957-1.473c-5.758,0-10.076,1.051-12.954,3.149c-2.879,2.101-4.317,4.81-4.317,8.128
		c0,2.438,0.813,4.42,2.438,5.944c1.625,1.524,3.64,2.709,6.045,3.556c2.403,0.848,5.672,1.745,9.804,2.692
		c5.351,1.288,9.652,2.575,12.903,3.861c3.251,1.287,6.045,3.25,8.382,5.892s3.505,6.197,3.505,10.668
		c0,3.726-1.016,7.129-3.048,10.211c-2.032,3.083-5.114,5.521-9.245,7.314c-4.132,1.796-9.212,2.692-15.24,2.692
		C381.498,86.856,376.334,86.028,371.355,84.367z"/>
	<path d="M486.82,55.412c2.37,3.015,3.556,6.824,3.556,11.43c0,6.164-2.321,10.906-6.96,14.224
		c-4.64,3.319-11.396,4.979-20.269,4.979h-33.934V14.926h31.901c8.128,0,14.41,1.625,18.847,4.876
		c4.436,3.251,6.655,7.756,6.655,13.513c0,3.726-0.864,6.943-2.591,9.652c-1.728,2.71-4.049,4.775-6.96,6.197
		C481.197,50.317,484.448,52.399,486.82,55.412z M439.374,23.155v22.758h20.827c5.215,0,9.229-0.965,12.039-2.896
		c2.811-1.931,4.217-4.758,4.217-8.483c0-3.724-1.406-6.553-4.217-8.483c-2.811-1.931-6.824-2.896-12.039-2.896H439.374z
		 M475.746,74.97c2.911-1.896,4.368-4.877,4.368-8.94c0-7.925-5.791-11.888-17.373-11.888h-23.367v23.673h23.367
		C468.497,77.814,472.833,76.867,475.746,74.97z"/>
	<path d="M501.246,53.938h27.33v8.433h-27.33V53.938z"/>
	<path d="M558.291,82.133c-5.724-3.15-10.21-7.483-13.461-13.005c-3.252-5.52-4.877-11.734-4.877-18.643s1.625-13.122,4.877-18.643
		c3.251-5.52,7.754-9.855,13.512-13.005c5.757-3.149,12.192-4.724,19.304-4.724c5.554,0,10.634,0.932,15.24,2.794
		c4.605,1.864,8.534,4.623,11.785,8.28l-6.604,6.401c-5.352-5.622-12.023-8.433-20.015-8.433c-5.283,0-10.059,1.186-14.326,3.556
		c-4.267,2.372-7.604,5.639-10.007,9.804c-2.405,4.166-3.607,8.823-3.607,13.97c0,5.148,1.202,9.804,3.607,13.969
		c2.403,4.166,5.74,7.435,10.007,9.805c4.268,2.371,9.043,3.556,14.326,3.556c7.924,0,14.595-2.845,20.015-8.534l6.604,6.4
		c-3.251,3.658-7.197,6.436-11.836,8.331c-4.641,1.897-9.737,2.845-15.291,2.845C570.433,86.856,564.015,85.282,558.291,82.133z"/>
</g>
</svg>
