<?xml version="1.0" encoding="utf-8"?>
<!-- Generator: Adobe Illustrator 16.0.0, SVG Export Plug-In . SVG Version: 6.00 Build 0)  -->
<!DOCTYPE svg PUBLIC "-//W3C//DTD SVG 1.1//EN" "http://www.w3.org/Graphics/SVG/1.1/DTD/svg11.dtd" [
	<!ENTITY ns_flows "http://ns.adobe.com/Flows/1.0/">
	<!ENTITY ns_extend "http://ns.adobe.com/Extensibility/1.0/">
	<!ENTITY ns_ai "http://ns.adobe.com/AdobeIllustrator/10.0/">
	<!ENTITY ns_graphs "http://ns.adobe.com/Graphs/1.0/">
]>
<svg version="1.1" id="Layer_1" xmlns:x="&ns_extend;" xmlns:i="&ns_ai;" xmlns:graph="&ns_graphs;"
	 xmlns="http://www.w3.org/2000/svg" xmlns:xlink="http://www.w3.org/1999/xlink" xmlns:a="http://ns.adobe.com/AdobeSVGViewerExtensions/3.0/"
	 x="0px" y="0px" width="360px" height="83.117676px" viewBox="0 6.101074 360 83.117676"
	 enable-background="new 0 6.101074 360 83.117676" xml:space="preserve">
<g>
	<path d="M46.00293,67.819336c-0.368164-1.162109-0.612793-2.509766-0.734863-4.041016
		c-1.40918,1.592773-3.275879,2.863281-5.603027,3.811523c-2.328125,0.948242-5.020996,1.424805-8.082031,1.424805
		c-5.205078,0-9.01709-1.148438-11.435059-3.445313c-2.418945-2.294922-3.62793-5.280273-3.62793-8.954102
		c0-3.244141,0.52002-5.832031,1.562012-7.760742c1.041016-1.929688,2.479004-3.444336,4.315918-4.546387
		c1.836914-1.103027,4.024902-1.913086,6.566895-2.434082c2.540039-0.52002,5.311035-0.995117,8.312012-1.423828
		c2.999023-0.428223,5.02002-0.994141,6.062012-1.699219c1.041016-0.703125,1.561035-1.852051,1.561035-3.443848
		c0-1.469238-0.687988-2.617188-2.065918-3.444336c-1.376953-0.825684-3.22998-1.23877-5.556152-1.23877
		c-2.754883,0-4.72998,0.611816-5.923828,1.836914c-1.193848,1.226074-1.944824,2.847168-2.25,4.867188H17.991211
		c0.05957-2.326172,0.442871-4.469238,1.147949-6.429199c0.702637-1.958984,1.836914-3.643066,3.397949-5.051758
		c1.562012-1.407227,3.59668-2.494141,6.10791-3.260254c2.509766-0.766113,5.570801-1.147949,9.184082-1.147949
		c3.549805,0,6.566895,0.398926,9.045898,1.193848c2.47998,0.796387,4.469238,1.944336,5.970215,3.444336
		c1.5,1.500977,2.585938,3.366699,3.259766,5.602051c0.672852,2.23584,1.010254,4.761719,1.010254,7.57666v28.563477H46.00293z
		 M45.175781,45.686035c-0.612793,0.611816-1.500977,1.102051-2.663574,1.469238
		c-1.164063,0.367188-2.847168,0.766602-5.05127,1.193359c-3.430176,0.675781-5.786133,1.53125-7.071777,2.571289
		c-1.286133,1.041992-1.929199,2.541992-1.929199,4.500977c0,3.368164,1.929199,5.050781,5.786133,5.050781
		c1.529785,0,2.954102-0.259766,4.270996-0.779297c1.315918-0.520508,2.447754-1.225586,3.397949-2.112305
		c0.94873-0.887695,1.713867-1.928711,2.295898-3.123047c0.581055-1.192383,0.873047-2.463867,0.873047-3.811523
		L45.175781,45.686035z"/>
	<path d="M114.883789,67.819336V40.450195c0-2.756348-0.642578-4.990234-1.928711-6.705078
		c-1.286133-1.712891-3-2.571289-5.143066-2.571289c-2.205078,0-4.026855,0.918945-5.464844,2.756348
		c-1.438965,1.835938-2.158203,4.132813-2.158203,6.887695v27.001465H88.25V40.633789c0-1.836914-0.124023-3.336914-0.368164-4.5
		c-0.244629-1.162598-0.658691-2.081055-1.239746-2.755859c-0.583008-0.672852-1.332031-1.146973-2.25-1.422852
		s-2.020996-0.414063-3.307129-0.414063c-4.836914,0-7.254883,2.938965-7.254883,8.816895v27.461426H61.890137V22.632813h11.205078
		v6.612305c1.529785-2.999023,3.366699-5.05127,5.510742-6.15332c2.143066-1.102539,4.713867-1.652832,7.714844-1.652832
		c1.530273,0,2.893066,0.123047,4.087402,0.367188c1.193848,0.245605,2.264648,0.658691,3.213867,1.239746
		c0.94873,0.583008,1.851074,1.332031,2.708984,2.25c0.855957,0.918945,1.712891,2.020996,2.571777,3.307129
		c1.224121-2.510254,2.847168-4.331055,4.868164-5.464844c2.020996-1.132324,4.469238-1.699219,7.347168-1.699219
		c2.264648,0,4.34668,0.383301,6.245605,1.147949c1.897461,0.766113,3.52002,1.836914,4.868164,3.213867
		c1.346191,1.378418,2.401855,2.985352,3.167969,4.822266c0.765137,1.836914,1.147949,3.796875,1.147949,5.87793v31.318359
		H114.883789z"/>
	<path d="M131.323242,89.21875V22.632813h11.47998l0.091797,5.51123c2.754883-4.469238,6.94873-6.705078,12.583008-6.705078
		c2.815918,0,5.433105,0.55127,7.853027,1.652832c2.417969,1.103027,4.484863,2.695313,6.199707,4.775391
		c1.713379,2.083008,3.061035,4.624023,4.041016,7.623047c0.979004,3.000977,1.469238,6.398926,1.469238,10.194824
		c0,3.430176-0.413086,6.565918-1.240234,9.413574c-0.82666,2.847656-2.035645,5.3125-3.62793,7.393555
		c-1.592773,2.082031-3.535645,3.688477-5.832031,4.821289c-2.295898,1.132813-4.914063,1.699219-7.853027,1.699219
		c-5.571777,0-10.041992-2.355469-13.408691-7.072266v27.277344h-11.755859V89.21875z M152.630859,58.817383
		c6.856934,0,10.287109-4.651367,10.287109-13.959473c0-4.041016-0.950195-7.331055-2.847168-9.873047
		c-1.897949-2.540039-4.347656-3.812012-7.347656-3.812012c-2.87793,0-5.28125,1.194336-7.208984,3.582031
		c-1.928223,2.388184-2.893066,5.51123-2.893066,9.368164C142.620117,53.920898,145.957031,58.817383,152.630859,58.817383z"/>
	<path d="M207.828125,67.819336v-28.01123c0-3.429199-0.597656-5.770996-1.791016-7.025879
		c-1.193359-1.254395-3.167969-1.883301-5.923828-1.883301c-1.470703,0-2.787109,0.291016-3.949219,0.87207
		c-1.164063,0.583008-2.144531,1.37793-2.939453,2.38916c-0.796875,1.009766-1.392578,2.173828-1.791016,3.48877
		c-0.397461,1.316895-0.597656,2.741211-0.597656,4.270996v25.899414h-11.938965V6.101074h11.938965v22.409668
		c0.427734-0.978516,1.087891-1.912598,1.974609-2.801758c0.889648-0.886719,1.914063-1.636719,3.078125-2.25
		c1.162109-0.61084,2.447266-1.102051,3.857422-1.469727c1.408203-0.367188,2.876953-0.55127,4.408203-0.55127
		c4.652344,0,8.433594,1.270996,11.341797,3.812012c2.908203,2.541992,4.363281,6.077148,4.363281,10.60791v31.961426H207.828125z"
		/>
	<path d="M235.5625,48.348633c0.18457,3.429688,1.178711,6.15332,2.984375,8.173828
		c1.806641,2.021484,4.179688,3.03125,7.119141,3.03125c1.958984,0,3.6875-0.443359,5.189453-1.332031
		c1.498047-0.886719,2.462891-2.126953,2.892578-3.719727h12.306641c-1.408203,4.654297-3.856445,8.235352-7.347656,10.746094
		c-3.490234,2.510742-7.654297,3.766602-12.490234,3.766602c-15.0625,0-22.59375-8.205078-22.59375-24.614746
		c0-3.489746,0.490234-6.643066,1.46875-9.459961c0.980469-2.814941,2.402344-5.234863,4.271484-7.255859
		c1.867188-2.020996,4.145508-3.564941,6.841797-4.638184c2.693359-1.069824,5.787109-1.606934,9.277344-1.606934
		c6.979492,0,12.259766,2.23584,15.841797,6.705078c3.582031,4.470215,5.373047,11.204102,5.373047,20.20459H235.5625z
		 M254.390625,40.816895c-0.0625-1.652832-0.353516-3.105957-0.873047-4.361816
		c-0.519531-1.253906-1.208984-2.295898-2.06543-3.123047c-0.856445-0.826172-1.835938-1.437988-2.938477-1.836914
		c-1.103516-0.396973-2.236328-0.597168-3.397461-0.597168c-2.389648,0-4.455078,0.87207-6.199219,2.617188
		c-1.746094,1.744629-2.742188,4.178711-2.985352,7.301758H254.390625z"/>
	<path d="M270.371094,67.819336V22.632813h11.205078v5.418945c0.978516-1.529785,2.003906-2.724609,3.076172-3.582031
		c1.070313-0.856934,2.171875-1.515625,3.306641-1.974609c1.132813-0.459961,2.279297-0.749023,3.443359-0.873047
		c1.162109-0.12207,2.356445-0.184082,3.582031-0.184082h1.5625v12.214844c-1.103516-0.184082-2.205078-0.274902-3.306641-0.274902
		c-7.287109,0-10.929688,3.644043-10.929688,10.930176v23.51123H270.371094L270.371094,67.819336z"/>
	<path d="M307.841797,48.348633c0.18457,3.429688,1.177734,6.15332,2.984375,8.173828
		c1.805664,2.021484,4.179688,3.03125,7.119141,3.03125c1.958984,0,3.6875-0.443359,5.188477-1.332031
		c1.498047-0.886719,2.462891-2.126953,2.893555-3.719727h12.306641c-1.408203,4.654297-3.857422,8.235352-7.347656,10.746094
		s-7.654297,3.766602-12.490234,3.766602c-15.0625,0-22.59375-8.205078-22.59375-24.614746
		c0-3.489746,0.490234-6.643066,1.46875-9.459961c0.980469-2.814941,2.402344-5.234863,4.271484-7.255859
		c1.866211-2.020996,4.145508-3.564941,6.841797-4.638184c2.692383-1.069824,5.787109-1.606934,9.276367-1.606934
		c6.980469,0,12.260742,2.23584,15.842773,6.705078c3.582031,4.470215,5.37207,11.204102,5.37207,20.20459H307.841797z
		 M326.669922,40.816895c-0.0625-1.652832-0.353516-3.105957-0.873047-4.361816
		c-0.519531-1.253906-1.208984-2.295898-2.06543-3.123047c-0.857422-0.826172-1.836914-1.437988-2.938477-1.836914
		c-1.103516-0.396973-2.236328-0.597168-3.398438-0.597168c-2.388672,0-4.454102,0.87207-6.198242,2.617188
		c-1.746094,1.744629-2.742188,4.178711-2.986328,7.301758H326.669922z"/>
</g>
<g>
	<path d="M339.161133,12.99707c-2.829102,0-5.12207,2.293457-5.12207,5.123535c0,2.82959,2.292969,5.123047,5.12207,5.123047
		c2.833008,0,5.125-2.293457,5.125-5.123047C344.286133,15.290527,341.993164,12.99707,339.161133,12.99707z M339.161133,22.748535
		c-2.554688,0-4.626953-2.071777-4.626953-4.62793c0-2.557129,2.072266-4.629395,4.626953-4.629395
		c2.558594,0,4.630859,2.072266,4.630859,4.629395C343.791016,20.677246,341.719727,22.748535,339.161133,22.748535z"/>
	<g>
		<path d="M340.222656,20.931641v-1.467773c0-0.273438-0.0625-0.470215-0.186523-0.587891
			c-0.126953-0.116211-0.363281-0.176758-0.706055-0.176758h-1.269531v2.232422h-1.160156v-5.699219h2.894531
			c0.262695,0,0.500977,0.041504,0.716797,0.123535c0.214844,0.083984,0.399414,0.198242,0.553711,0.342773
			c0.155273,0.146484,0.272461,0.321289,0.354492,0.524414c0.083984,0.203125,0.126953,0.42334,0.126953,0.657227
			c0,0.30957-0.074219,0.58252-0.220703,0.819336c-0.145508,0.238281-0.355469,0.404297-0.628906,0.501465
			c0.250977,0.080566,0.430664,0.203613,0.535156,0.369629c0.105469,0.166016,0.15918,0.415527,0.15918,0.746582v1.614258
			H340.222656z M338.05957,16.219238v1.52002h1.494141c0.320313,0,0.546875-0.071289,0.678711-0.214355
			c0.130859-0.143066,0.196289-0.323242,0.196289-0.540039c0-0.223633-0.064453-0.40625-0.194336-0.549805
			c-0.12793-0.144043-0.339844-0.215332-0.637695-0.215332h-1.537109V16.219238z"/>
	</g>
</g>
</svg>
