<?xml version="1.0" encoding="utf-8"?>
<!-- Generator: Adobe Illustrator 17.0.0, SVG Export Plug-In . SVG Version: 6.00 Build 0)  -->
<!DOCTYPE svg PUBLIC "-//W3C//DTD SVG 1.1//EN" "http://www.w3.org/Graphics/SVG/1.1/DTD/svg11.dtd">
<svg version="1.1" id="Layer_1" xmlns="http://www.w3.org/2000/svg" xmlns:xlink="http://www.w3.org/1999/xlink" x="0px" y="0px"
	 width="468.722px" height="146.5px" viewBox="0 0 468.722 146.5" enable-background="new 0 0 468.722 146.5" xml:space="preserve">
<g enable-background="new    ">
	<path fill="#FFFFFF" d="M164.581,100.438c-0.381-1.207-0.636-2.605-0.763-4.195c-1.463,1.654-3.401,2.973-5.816,3.957
		c-2.417,0.984-5.213,1.478-8.39,1.478c-5.403,0-9.36-1.191-11.871-3.575c-2.512-2.384-3.766-5.482-3.766-9.296
		c0-3.368,0.54-6.055,1.621-8.057c1.08-2.002,2.574-3.575,4.481-4.72c1.907-1.144,4.179-1.985,6.817-2.526
		c2.637-0.539,5.513-1.032,8.628-1.478c3.113-0.444,5.211-1.032,6.292-1.764c1.08-0.73,1.621-1.922,1.621-3.576
		c0-1.525-0.715-2.717-2.146-3.575c-1.43-0.857-3.353-1.287-5.768-1.287c-2.86,0-4.91,0.637-6.15,1.907
		c-1.239,1.272-2.019,2.955-2.336,5.053h-11.534c0.063-2.415,0.46-4.639,1.191-6.674c0.73-2.033,1.907-3.781,3.528-5.244
		c1.621-1.461,3.733-2.589,6.34-3.385c2.605-0.794,5.783-1.191,9.535-1.191c3.686,0,6.817,0.414,9.391,1.239
		c2.574,0.827,4.639,2.019,6.197,3.575c1.557,1.559,2.685,3.497,3.385,5.816c0.699,2.321,1.049,4.943,1.049,7.866v29.652H164.581z
		 M163.723,77.46c-0.636,0.636-1.559,1.144-2.765,1.525c-1.208,0.381-2.956,0.795-5.244,1.239c-3.56,0.7-6.006,1.59-7.341,2.67
		c-1.335,1.081-2.002,2.638-2.002,4.672c0,3.496,2.002,5.243,6.006,5.243c1.588,0,3.066-0.27,4.434-0.81
		c1.366-0.54,2.542-1.271,3.528-2.193c0.984-0.921,1.779-2.002,2.383-3.241c0.604-1.24,0.906-2.559,0.906-3.957L163.723,77.46z"/>
	<path fill="#FFFFFF" d="M236.087,100.438V72.026c0-2.86-0.667-5.18-2.002-6.96c-1.334-1.779-3.115-2.67-5.339-2.67
		c-2.288,0-4.18,0.953-5.673,2.86c-1.494,1.907-2.24,4.29-2.24,7.15v28.032h-12.395V72.217c0-1.907-0.128-3.464-0.381-4.672
		c-0.254-1.207-0.684-2.16-1.287-2.86c-0.604-0.698-1.382-1.191-2.336-1.478c-0.953-0.286-2.097-0.429-3.432-0.429
		c-5.022,0-7.532,3.051-7.532,9.152v28.508h-12.396V53.529h11.632v6.865c1.588-3.114,3.495-5.244,5.721-6.389
		c2.224-1.144,4.894-1.716,8.009-1.716c1.588,0,3.003,0.128,4.243,0.382c1.24,0.254,2.351,0.684,3.337,1.287
		c0.985,0.604,1.922,1.382,2.813,2.336c0.889,0.953,1.778,2.097,2.669,3.432c1.271-2.605,2.956-4.496,5.053-5.673
		c2.098-1.175,4.639-1.764,7.627-1.764c2.351,0,4.512,0.397,6.483,1.191c1.969,0.796,3.654,1.907,5.053,3.338
		c1.397,1.43,2.494,3.099,3.289,5.005c0.794,1.907,1.192,3.942,1.192,6.103v32.512H236.087z"/>
	<path fill="#FFFFFF" d="M253.153,122.653V53.529h11.918l0.096,5.721c2.86-4.639,7.213-6.96,13.062-6.96
		c2.923,0,5.641,0.572,8.152,1.716c2.511,1.145,4.655,2.798,6.436,4.958c1.779,2.162,3.178,4.8,4.195,7.914
		c1.016,3.114,1.525,6.643,1.525,10.583c0,3.561-0.429,6.816-1.287,9.772c-0.858,2.956-2.114,5.515-3.766,7.675
		c-1.654,2.162-3.671,3.83-6.055,5.006c-2.384,1.176-5.102,1.764-8.152,1.764c-5.784,0-10.425-2.446-13.92-7.341v28.316H253.153z
		 M275.274,91.094c7.118,0,10.679-4.83,10.679-14.492c0-4.195-0.986-7.611-2.956-10.249c-1.971-2.637-4.514-3.957-7.628-3.957
		c-2.988,0-5.481,1.239-7.484,3.719c-2.002,2.479-3.003,5.721-3.003,9.724C264.881,86.01,268.345,91.094,275.274,91.094z"/>
	<path fill="#FFFFFF" d="M332.573,100.438v-29.08c0-3.559-0.619-5.99-1.858-7.293c-1.24-1.303-3.29-1.955-6.15-1.955
		c-1.525,0-2.893,0.303-4.1,0.906c-1.208,0.604-2.226,1.43-3.051,2.479c-0.827,1.049-1.446,2.257-1.859,3.623
		c-0.414,1.367-0.619,2.846-0.619,4.434v26.886H302.54v-64.07h12.396v23.264c0.443-1.017,1.127-1.986,2.05-2.908
		c0.92-0.921,1.985-1.7,3.193-2.336c1.207-0.635,2.542-1.145,4.005-1.525c1.461-0.382,2.986-0.572,4.576-0.572
		c4.83,0,8.755,1.32,11.775,3.957c3.018,2.638,4.528,6.309,4.528,11.012v33.178H332.573z"/>
	<path fill="#FFFFFF" d="M361.366,80.225c0.19,3.561,1.223,6.388,3.099,8.485c1.874,2.098,4.338,3.146,7.389,3.146
		c2.033,0,3.829-0.46,5.387-1.383c1.557-0.92,2.559-2.207,3.004-3.861h12.775c-1.463,4.832-4.004,8.55-7.627,11.155
		c-3.623,2.607-7.946,3.909-12.967,3.909c-15.637,0-23.455-8.517-23.455-25.552c0-3.623,0.509-6.896,1.526-9.82
		c1.016-2.923,2.493-5.435,4.433-7.532c1.938-2.098,4.306-3.702,7.104-4.814c2.796-1.111,6.007-1.669,9.63-1.669
		c7.246,0,12.729,2.321,16.446,6.96c3.719,4.641,5.578,11.632,5.578,20.975h-32.322V80.225z M380.911,72.407
		c-0.064-1.716-0.366-3.225-0.905-4.528c-0.541-1.302-1.256-2.384-2.146-3.242c-0.891-0.857-1.907-1.492-3.051-1.906
		c-1.145-0.413-2.321-0.62-3.528-0.62c-2.479,0-4.624,0.906-6.436,2.718c-1.812,1.812-2.846,4.338-3.099,7.579L380.911,72.407
		L380.911,72.407z"/>
	<path fill="#FFFFFF" d="M397.499,100.438V53.529h11.632v5.626c1.017-1.589,2.082-2.828,3.194-3.719
		c1.111-0.89,2.256-1.573,3.433-2.05c1.175-0.477,2.367-0.778,3.575-0.906c1.207-0.126,2.446-0.19,3.719-0.19h1.62v12.681
		c-1.144-0.19-2.288-0.286-3.432-0.286c-7.565,0-11.346,3.782-11.346,11.345v24.408H397.499z"/>
	<path fill="#FFFFFF" d="M436.4,80.225c0.19,3.561,1.223,6.388,3.099,8.485c1.874,2.098,4.338,3.146,7.389,3.146
		c2.033,0,3.829-0.46,5.387-1.383c1.557-0.92,2.559-2.207,3.004-3.861h12.775c-1.463,4.832-4.004,8.55-7.627,11.155
		c-3.623,2.607-7.946,3.909-12.967,3.909c-15.637,0-23.455-8.517-23.455-25.552c0-3.623,0.509-6.896,1.526-9.82
		c1.016-2.923,2.493-5.435,4.433-7.532c1.938-2.098,4.306-3.702,7.104-4.814c2.796-1.111,6.007-1.669,9.63-1.669
		c7.246,0,12.729,2.321,16.446,6.96c3.719,4.641,5.578,11.632,5.578,20.975H436.4V80.225z M455.945,72.407
		c-0.064-1.716-0.366-3.225-0.905-4.528c-0.541-1.302-1.256-2.384-2.146-3.242c-0.891-0.857-1.907-1.492-3.051-1.906
		c-1.145-0.413-2.321-0.62-3.528-0.62c-2.479,0-4.624,0.906-6.436,2.718c-1.812,1.812-2.846,4.338-3.099,7.579L455.945,72.407
		L455.945,72.407z"/>
</g>
<g>
	<path fill="#FFFFFF" d="M104.469,55.356c0,0-0.056,33.804-48.32,89.237c-13.811-15.835-23.679-29.9-30.726-41.922l9.405-5.427
		c5.242,8.36,12.169,17.854,21.321,28.344c37.588-43.178,37.637-69.496,37.637-69.496c0-2.664-0.221-5.281-0.64-7.817
		c-0.226-1.361-0.509-2.698-0.842-4.001c-0.107-0.414-0.221-0.826-0.34-1.24l9.801-5.655c0.283,0.924,0.551,1.856,0.794,2.803
		c0.437,1.677,0.8,3.394,1.093,5.144C104.187,48.575,104.469,51.937,104.469,55.356z M56.149,1C29.466,1,7.829,25.335,7.829,55.356
		c0,0.089,0.017,7.809,5.265,21.856c0.763,2.05,1.645,4.236,2.659,6.553l9.056-5.234c-0.042-0.089-0.074-0.17-0.114-0.26
		c-0.784-1.831-1.475-3.555-2.082-5.169c-4.082-10.936-4.098-16.954-4.098-17.012c0-23.379,16.849-42.334,37.635-42.334
		c9.705,0,18.543,4.124,25.21,10.903l10.426-6.02C82.946,7.797,70.253,1,56.149,1z"/>
	<path fill="#FFFFFF" d="M87.815,60.483c-0.324,0.502-0.761,0.924-1.288,1.231L32.276,93.04l-9.282,5.355v0.009l-15.148,8.74
		c-2.196,1.263-5.242,0.081-6.812-2.633c-0.058-0.098-0.107-0.195-0.163-0.293c-0.502-0.979-0.745-2.017-0.745-2.996
		c0-0.996,0.251-1.936,0.745-2.69c0.323-0.51,0.754-0.931,1.288-1.239l15.628-9.026l9.105-5.248l53.951-31.147
		c2.194-1.272,5.242-0.089,6.812,2.633c0.058,0.097,0.112,0.195,0.161,0.3C88.843,56.789,88.796,58.993,87.815,60.483z"/>
	<path fill="#FFFFFF" d="M113.583,24.387c-0.332,0.502-0.761,0.916-1.288,1.223l-12.224,7.056l-9.762,5.637L33.612,71.038
		c-2.194,1.272-5.239,0.089-6.812-2.633c-0.055-0.097-0.104-0.195-0.153-0.291c-0.509-0.972-0.761-2.017-0.761-2.989
		c0-1.005,0.26-1.944,0.753-2.698c0.324-0.502,0.761-0.924,1.288-1.231l56.72-32.743l10.087-5.825l11.883-6.862
		c2.187-1.263,5.232-0.089,6.805,2.633c0.055,0.098,0.112,0.195,0.161,0.3C114.612,20.685,114.555,22.897,113.583,24.387z"/>
</g>
</svg>
