<?xml version="1.0" encoding="utf-8"?>
<!-- Generator: Adobe Illustrator 17.0.0, SVG Export Plug-In . SVG Version: 6.00 Build 0)  -->
<!DOCTYPE svg PUBLIC "-//W3C//DTD SVG 1.1//EN" "http://www.w3.org/Graphics/SVG/1.1/DTD/svg11.dtd">
<svg version="1.1" id="Layer_1" xmlns="http://www.w3.org/2000/svg" xmlns:xlink="http://www.w3.org/1999/xlink" x="0px" y="0px"
	 width="100px" height="100px" viewBox="0 0 100 100" enable-background="new 0 0 100 100" xml:space="preserve">
<g>
	<path fill="#FFFFFF" d="M49.812,97.942c-7.755,0-15.509,0.013-23.264-0.003C12.482,97.911,1.052,86.467,1.028,72.358
		c-0.025-14.78-0.017-29.56-0.002-44.34C1.04,14.179,11.529,2.669,25.337,2.331c16.684-0.409,33.394-0.368,50.079,0.03
		c12.704,0.303,23.52,12.107,23.549,24.829C99,42.367,98.992,57.545,98.968,72.722c-0.021,13.55-11.543,25.129-25.097,25.211
		C65.852,97.982,57.832,97.942,49.812,97.942z M50.089,10.787c-7.293,0-14.587-0.012-21.88,0.003
		c-10.451,0.02-18.316,7.71-18.376,18.158c-0.082,14.122-0.09,28.245,0.003,42.367c0.068,10.234,7.851,17.996,18.088,18.054
		c14.719,0.084,29.439,0.095,44.157-0.005c10.355-0.07,18.058-7.96,18.066-18.261c0.011-13.99,0.01-27.98-0.001-41.969
		c-0.008-10.522-7.832-18.328-18.376-18.344C64.543,10.777,57.316,10.786,50.089,10.787z"/>
	<path fill="#FFFFFF" d="M25.31,50.156C25.274,36.53,36.247,25.491,49.913,25.405c13.58-0.085,24.718,10.99,24.74,24.6
		c0.022,13.602-10.911,24.674-24.388,24.698C36.387,74.728,25.347,63.868,25.31,50.156z M49.928,65.861
		c8.742,0.035,15.858-7.006,15.887-15.721c0.029-8.685-7.098-15.87-15.77-15.898c-8.659-0.028-15.864,7.116-15.914,15.779
		C34.082,58.704,41.185,65.827,49.928,65.861z"/>
	<path fill="#FFFFFF" d="M81.488,24.146c0.01,3.132-2.39,5.583-5.492,5.609c-3.111,0.026-5.601-2.39-5.643-5.477
		c-0.045-3.237,2.374-5.686,5.612-5.68C79.111,18.602,81.478,20.98,81.488,24.146z"/>
</g>
</svg>
