<?xml version="1.0" encoding="utf-8"?>
<!-- Generator: Adobe Illustrator 17.0.0, SVG Export Plug-In . SVG Version: 6.00 Build 0)  -->
<!DOCTYPE svg PUBLIC "-//W3C//DTD SVG 1.1//EN" "http://www.w3.org/Graphics/SVG/1.1/DTD/svg11.dtd">
<svg version="1.1" id="Layer_1" xmlns="http://www.w3.org/2000/svg" xmlns:xlink="http://www.w3.org/1999/xlink" x="0px" y="0px"
	 width="200px" height="200px" viewBox="0 0 200 200" enable-background="new 0 0 200 200" xml:space="preserve">
<g>
	<path fill="#FFFFFF" d="M21.538,168.876c-0.22-0.699-0.369-1.512-0.443-2.434c-0.849,0.96-1.974,1.725-3.374,2.295
		c-1.402,0.572-3.025,0.859-4.868,0.859c-3.135,0-5.43-0.692-6.888-2.075c-1.457-1.385-2.185-3.183-2.185-5.394
		c0-1.953,0.314-3.513,0.941-4.674c0.627-1.163,1.493-2.075,2.599-2.738c1.108-0.665,2.424-1.151,3.956-1.465
		c1.53-0.314,3.2-0.599,5.007-0.857c1.807-0.258,3.023-0.599,3.65-1.024c0.627-0.424,0.941-1.115,0.941-2.075
		c0-0.885-0.414-1.577-1.245-2.075c-0.83-0.498-1.946-0.747-3.346-0.747c-1.661,0-2.85,0.369-3.568,1.106
		c-0.718,0.739-1.172,1.714-1.355,2.932H4.665c0.036-1.4,0.268-2.692,0.692-3.872c0.424-1.18,1.108-2.193,2.048-3.044
		c0.941-0.847,2.166-1.501,3.678-1.963c1.511-0.46,3.355-0.692,5.531-0.692c2.138,0,3.956,0.241,5.449,0.72
		c1.493,0.479,2.692,1.17,3.595,2.075c0.903,0.904,1.558,2.027,1.965,3.373c0.405,1.347,0.608,2.869,0.608,4.564v17.205
		L21.538,168.876L21.538,168.876z M21.042,155.546c-0.369,0.369-0.904,0.665-1.606,0.885c-0.701,0.22-1.714,0.462-3.042,0.72
		c-2.065,0.407-3.485,0.922-4.26,1.547c-0.775,0.629-1.161,1.531-1.161,2.711c0,2.029,1.161,3.044,3.485,3.044
		c0.922,0,1.778-0.156,2.573-0.469c0.792-0.313,1.474-0.739,2.046-1.273c0.572-0.534,1.032-1.161,1.383-1.881
		c0.35-0.718,0.524-1.484,0.524-2.295L21.042,155.546z"/>
	<path fill="#FFFFFF" d="M63.026,168.876v-16.485c0-1.661-0.388-3.006-1.161-4.039c-0.775-1.032-1.807-1.547-3.097-1.547
		c-1.328,0-2.426,0.553-3.291,1.659c-0.868,1.106-1.3,2.491-1.3,4.15v16.264h-7.192v-16.374c0-1.106-0.074-2.01-0.22-2.711
		c-0.148-0.699-0.397-1.252-0.747-1.659c-0.351-0.405-0.802-0.692-1.355-0.857c-0.553-0.167-1.218-0.249-1.991-0.249
		c-2.913,0-4.37,1.771-4.37,5.311v16.54h-7.192v-27.216h6.749v3.982c0.922-1.805,2.027-3.042,3.319-3.705
		c1.29-0.665,2.841-0.996,4.647-0.996c0.922,0,1.742,0.074,2.461,0.222c0.718,0.146,1.364,0.395,1.936,0.747
		c0.572,0.352,1.115,0.802,1.632,1.355c0.515,0.555,1.032,1.218,1.549,1.993c0.737-1.512,1.714-2.609,2.932-3.291
		c1.218-0.682,2.692-1.024,4.425-1.024c1.364,0,2.618,0.232,3.762,0.692c1.142,0.462,2.12,1.106,2.932,1.936
		c0.811,0.832,1.446,1.797,1.908,2.905c0.462,1.106,0.692,2.286,0.692,3.54v18.863h-7.028V168.876z"/>
	<path fill="#FFFFFF" d="M72.927,181.766v-40.104h6.916l0.055,3.319c1.661-2.692,4.186-4.039,7.579-4.039
		c1.697,0,3.272,0.333,4.729,0.996c1.457,0.665,2.702,1.623,3.734,2.877c1.032,1.254,1.843,2.785,2.434,4.592
		c0.591,1.807,0.885,3.853,0.885,6.139c0,2.065-0.249,3.956-0.747,5.67c-0.498,1.714-1.227,3.2-2.185,4.454
		c-0.958,1.254-2.13,2.221-3.513,2.903s-2.96,1.024-4.729,1.024c-3.357,0-6.05-1.419-8.077-4.26v16.428h-7.081V181.766z
		 M85.762,163.456c4.129,0,6.196-2.803,6.196-8.408c0-2.434-0.572-4.416-1.716-5.947c-1.144-1.531-2.618-2.295-4.425-2.295
		c-1.735,0-3.181,0.718-4.342,2.157c-1.163,1.438-1.742,3.319-1.742,5.643C79.731,160.505,81.742,163.456,85.762,163.456z"/>
	<path fill="#FFFFFF" d="M119.009,168.876v-16.872c0-2.065-0.359-3.475-1.079-4.233c-0.718-0.754-1.908-1.134-3.568-1.134
		c-0.885,0-1.678,0.177-2.379,0.524c-0.701,0.352-1.292,0.832-1.771,1.438c-0.479,0.608-0.838,1.309-1.077,2.101
		c-0.241,0.794-0.359,1.651-0.359,2.573v15.599h-7.192v-37.172h7.192v13.498c0.258-0.591,0.656-1.151,1.189-1.687
		c0.534-0.536,1.151-0.988,1.854-1.357c0.699-0.367,1.474-0.665,2.324-0.885c0.849-0.22,1.733-0.333,2.654-0.333
		c2.803,0,5.081,0.766,6.832,2.297c1.752,1.531,2.628,3.659,2.628,6.388v19.251h-7.249V168.876z"/>
	<path fill="#FFFFFF" d="M135.714,157.149c0.11,2.065,0.711,3.705,1.797,4.923c1.087,1.218,2.516,1.826,4.286,1.826
		c1.18,0,2.223-0.268,3.127-0.802s1.484-1.283,1.742-2.242h7.412c-0.849,2.804-2.324,4.959-4.425,6.471
		c-2.101,1.512-4.611,2.269-7.524,2.269c-9.071,0-13.608-4.944-13.608-14.826c0-2.101,0.295-4.001,0.885-5.698
		s1.448-3.152,2.573-4.37c1.125-1.218,2.499-2.149,4.123-2.795c1.623-0.644,3.485-0.969,5.586-0.969
		c4.205,0,7.385,1.347,9.542,4.039c2.157,2.692,3.236,6.749,3.236,12.17h-18.753V157.149z M147.055,152.614
		c-0.038-0.996-0.213-1.872-0.526-2.628s-0.728-1.385-1.243-1.881c-0.517-0.498-1.108-0.866-1.771-1.106
		c-0.665-0.239-1.347-0.359-2.048-0.359c-1.438,0-2.681,0.524-3.734,1.577c-1.053,1.051-1.649,2.516-1.797,4.397H147.055z"/>
	<path fill="#FFFFFF" d="M156.678,168.876V141.66h6.749v3.264c0.591-0.922,1.208-1.64,1.854-2.158
		c0.646-0.515,1.307-0.912,1.991-1.189c0.684-0.277,1.376-0.45,2.075-0.524c0.701-0.074,1.419-0.112,2.158-0.112h0.94v7.357
		c-0.665-0.11-1.328-0.165-1.991-0.165c-4.391,0-6.584,2.195-6.584,6.584v14.161H156.678z"/>
	<path fill="#FFFFFF" d="M179.249,157.149c0.112,2.065,0.709,3.705,1.797,4.923c1.087,1.218,2.516,1.826,4.286,1.826
		c1.18,0,2.223-0.268,3.127-0.802c0.904-0.534,1.484-1.283,1.742-2.242h7.412c-0.849,2.804-2.324,4.959-4.425,6.471
		c-2.101,1.512-4.611,2.269-7.524,2.269c-9.071,0-13.608-4.944-13.608-14.826c0-2.101,0.294-4.001,0.885-5.698
		s1.448-3.152,2.573-4.37c1.125-1.218,2.497-2.149,4.121-2.795c1.623-0.644,3.485-0.969,5.586-0.969
		c4.205,0,7.385,1.347,9.542,4.039c2.157,2.692,3.236,6.749,3.236,12.17h-18.751V157.149z M190.59,152.614
		c-0.038-0.996-0.213-1.872-0.526-2.628s-0.728-1.385-1.243-1.881c-0.517-0.498-1.108-0.866-1.771-1.106
		c-0.665-0.239-1.347-0.359-2.048-0.359c-1.438,0-2.681,0.524-3.734,1.577c-1.051,1.051-1.651,2.516-1.797,4.397H190.59z"/>
</g>
<g>
	<path fill="#FFFFFF" d="M134.978,52.532c0,0-0.04,24.212-34.609,63.915c-9.892-11.343-16.96-21.415-22.006-30.026l6.736-3.887
		c3.754,5.987,8.715,12.787,15.27,20.302c26.921-30.925,26.957-49.775,26.957-49.775c0-1.91-0.158-3.783-0.46-5.599
		c-0.161-0.975-0.365-1.932-0.602-2.865c-0.076-0.296-0.158-0.591-0.243-0.887l7.021-4.049c0.203,0.661,0.395,1.328,0.568,2.008
		c0.314,1.201,0.574,2.43,0.783,3.684C134.775,47.676,134.978,50.083,134.978,52.532z M100.369,13.601
		c-19.112,0-34.609,17.429-34.609,38.931c0,0.065,0.013,5.594,3.772,15.654c0.545,1.469,1.178,3.034,1.904,4.693l6.487-3.749
		c-0.03-0.065-0.051-0.122-0.082-0.186c-0.562-1.311-1.056-2.546-1.492-3.701c-2.924-7.832-2.936-12.143-2.936-12.185
		c0-16.745,12.067-30.321,26.956-30.321c6.95,0,13.281,2.953,18.056,7.809l7.467-4.311C119.561,18.469,110.47,13.601,100.369,13.601
		z"/>
	<path fill="#FFFFFF" d="M123.05,56.205c-0.232,0.359-0.545,0.661-0.923,0.882L83.271,79.524l-6.648,3.834v0.006l-10.849,6.261
		c-1.573,0.904-3.754,0.057-4.879-1.885c-0.04-0.07-0.076-0.139-0.116-0.209c-0.359-0.701-0.534-1.444-0.534-2.147
		c0-0.714,0.181-1.387,0.534-1.927c0.232-0.367,0.54-0.667,0.922-0.887l11.193-6.464l6.521-3.76l38.641-22.308
		c1.571-0.91,3.754-0.065,4.879,1.885c0.04,0.07,0.08,0.139,0.116,0.215C123.785,53.558,123.751,55.137,123.05,56.205z"/>
	<path fill="#FFFFFF" d="M141.505,30.352c-0.238,0.359-0.545,0.656-0.922,0.876l-8.755,5.054l-6.992,4.038L84.227,63.765
		c-1.571,0.91-3.753,0.065-4.879-1.885c-0.04-0.07-0.074-0.139-0.11-0.209c-0.365-0.695-0.545-1.444-0.545-2.141
		c0-0.72,0.186-1.393,0.54-1.932c0.232-0.359,0.545-0.661,0.922-0.882l40.624-23.452l7.224-4.172l8.512-4.913
		c1.566-0.904,3.747-0.065,4.874,1.885c0.04,0.07,0.08,0.139,0.116,0.215C142.242,27.699,142.202,29.284,141.505,30.352z"/>
</g>
</svg>
