<?xml version="1.0" encoding="utf-8"?>
<!-- Generator: Adobe Illustrator 16.0.0, SVG Export Plug-In . SVG Version: 6.00 Build 0)  -->
<!DOCTYPE svg PUBLIC "-//W3C//DTD SVG 1.1//EN" "http://www.w3.org/Graphics/SVG/1.1/DTD/svg11.dtd">
<svg version="1.1" id="Layer_1" xmlns="http://www.w3.org/2000/svg" xmlns:xlink="http://www.w3.org/1999/xlink" x="0px" y="0px"
	 width="595.28px" height="134px" viewBox="0 0 595.28 134" enable-background="new 0 0 595.28 134" xml:space="preserve">
<path fill-rule="evenodd" clip-rule="evenodd" fill="#FFFFFF" d="M595.27,134H0.04v-18.4c0,0,19.34-14.08,52.341-27.02
	c21.72,4.96,52.411,9.72,95.742,13.1c48.261,3.76,101.251-7.55,149.532-17.51c49.781,9.09,101.622,18.47,155.753,18.47
	c48.25,0,84.141-4.48,107.741-8.87c23.561,7.82,34.101,14.63,34.101,14.63"/>
<g>
	<path fill-rule="evenodd" clip-rule="evenodd" fill="#F9ED32" d="M561.189,93.651c-23.6,4.39-59.489,8.87-107.739,8.87
		c-54.131,0-105.971-9.38-155.75-18.471c33.84-6.989,65.37-13.31,91.35-13.31C474.1,70.741,529.46,83.111,561.189,93.651z"/>
	<linearGradient id="SVGID_1_" gradientUnits="userSpaceOnUse" x1="17.1099" y1="26.9209" x2="241.3296" y2="26.9209">
		<stop  offset="0" style="stop-color:#FFF33B"/>
		<stop  offset="0.0595" style="stop-color:#FFE029"/>
		<stop  offset="0.1303" style="stop-color:#FFD218"/>
		<stop  offset="0.2032" style="stop-color:#FEC90F"/>
		<stop  offset="0.2809" style="stop-color:#FDC70C"/>
		<stop  offset="0.6685" style="stop-color:#F3903F"/>
		<stop  offset="0.8876" style="stop-color:#ED683C"/>
		<stop  offset="1" style="stop-color:#E93E3A"/>
	</linearGradient>
	<path fill-rule="evenodd" clip-rule="evenodd" fill="url(#SVGID_1_)" d="M241.33,16.061c-61.96,12.701-123.51,33.9-165.64,33.9
		c-26.28,0-45.92-6.859-58.58-13.31C42.7,24.381,94.84,3.881,157.77,3.881C182.57,3.881,211.1,8.801,241.33,16.061z"/>
	<path fill-rule="evenodd" clip-rule="evenodd" fill="#FFF200" d="M52.43,88.461c-33,12.94-52.34,27.021-52.34,27.021v-50.4
		C0.16,65.421,4.21,77.451,52.43,88.461z"/>
	<path fill-rule="evenodd" clip-rule="evenodd" fill="#F15A29" d="M595.29,85.241v23.04c0,0-10.54-6.811-34.101-14.63
		C583.95,89.401,595.29,85.241,595.29,85.241z"/>
	<path fill-rule="evenodd" clip-rule="evenodd" fill="#FFF200" d="M595.29,32.682v19.439c0,0-25.57,23.76-102.96,23.76
		c-66.57,0-165.57-39.279-251-59.82c26.49-5.43,53.05-9.299,78.201-9.299c74.97,0,170.43,44.34,223.92,43.199
		C577.05,49.241,595.29,32.682,595.29,32.682z"/>
	<path fill-rule="evenodd" clip-rule="evenodd" fill="#D7DF23" d="M297.7,84.051c-48.28,9.96-101.27,21.271-149.53,17.511
		c-43.33-3.38-74.02-8.141-95.74-13.101c28.07-11.029,66.04-21.22,110.38-21.22C206.06,67.241,250.96,75.511,297.7,84.051z"/>
	<linearGradient id="SVGID_2_" gradientUnits="userSpaceOnUse" x1="0.0898" y1="54.856" x2="595.29" y2="54.856">
		<stop  offset="0" style="stop-color:#FFF33B"/>
		<stop  offset="0.0595" style="stop-color:#FFE029"/>
		<stop  offset="0.1303" style="stop-color:#FFD218"/>
		<stop  offset="0.2032" style="stop-color:#FEC90F"/>
		<stop  offset="0.2809" style="stop-color:#FDC70C"/>
		<stop  offset="0.6685" style="stop-color:#F3903F"/>
		<stop  offset="0.8876" style="stop-color:#ED683C"/>
		<stop  offset="1" style="stop-color:#E93E3A"/>
	</linearGradient>
	<path fill-rule="evenodd" clip-rule="evenodd" fill="url(#SVGID_2_)" d="M595.29,52.121v33.12c0,0-11.34,4.16-34.101,8.41
		c-31.729-10.54-87.09-22.91-172.14-22.91c-25.98,0-57.51,6.32-91.35,13.31c-46.74-8.54-91.64-16.81-134.89-16.81
		c-44.34,0-82.31,10.19-110.38,21.22C4.21,77.451,0.16,65.421,0.09,65.081V45.642c0,0,6.08-3.74,17.02-8.99
		c12.66,6.45,32.3,13.31,58.58,13.31c42.13,0,103.68-21.199,165.64-33.9c85.43,20.541,184.43,59.82,251,59.82
		C569.72,75.881,595.29,52.121,595.29,52.121z"/>
	<path fill-rule="evenodd" clip-rule="evenodd" fill="#F15A29" d="M17.11,36.651c-10.94,5.25-17.02,8.99-17.02,8.99V25.48
		C0.09,25.48,5.84,30.911,17.11,36.651z"/>
</g>
</svg>
