<?xml version="1.0" encoding="utf-8"?>
<!-- Generator: Adobe Illustrator 17.0.0, SVG Export Plug-In . SVG Version: 6.00 Build 0)  -->
<!DOCTYPE svg PUBLIC "-//W3C//DTD SVG 1.1//EN" "http://www.w3.org/Graphics/SVG/1.1/DTD/svg11.dtd">
<svg version="1.1" id="Layer_1" xmlns="http://www.w3.org/2000/svg" xmlns:xlink="http://www.w3.org/1999/xlink" x="0px" y="0px"
	 width="270px" height="100px" viewBox="0 0 270 100" enable-background="new 0 0 270 100" xml:space="preserve">
<g>
	<path d="M93.198,73.008c-1.651,5.131-4.001,9.937-7.089,14.377c-1.611,2.317-3.259,4.609-5.228,6.642
		c-1.915,1.977-4.042,3.628-6.769,4.369c-2.298,0.625-4.558,0.392-6.771-0.299c-1.945-0.607-3.835-1.389-5.764-2.054
		c-2.182-0.752-4.428-1.187-6.745-1.101c-2.783,0.103-5.424,0.84-7.987,1.89c-1.891,0.775-3.808,1.457-5.825,1.845
		c-2.898,0.558-5.49-0.158-7.868-1.8c-2.654-1.833-4.707-4.259-6.671-6.78c-5.834-7.488-9.639-15.91-11.646-25.163
		c-0.899-4.144-1.299-8.34-1.127-12.579c0.203-4.999,1.25-9.791,3.64-14.238c2.906-5.407,7.133-9.347,12.879-11.589
		c2.719-1.061,5.549-1.572,8.468-1.454c2.14,0.086,4.192,0.656,6.205,1.355c2.316,0.805,4.624,1.631,6.931,2.46
		c1.468,0.527,2.902,0.532,4.386-0.021c2.59-0.964,5.201-1.876,7.825-2.747c2.56-0.85,5.19-1.474,7.904-1.338
		c6.078,0.305,11.588,2.111,16.023,6.484c0.992,0.978,1.842,2.102,2.808,3.219c-7.481,4.655-11.171,11.24-10.588,19.983
		C80.77,63.221,85.494,69.145,93.198,73.008z"/>
	<path d="M72.887,1.228c0.336,3.699-0.222,7.126-1.729,10.376c-1.9,4.097-4.647,7.493-8.489,9.933
		c-2.453,1.558-5.157,2.291-8.058,2.312c-0.132,0.001-0.264-0.002-0.395-0.013c-0.278-0.023-0.555-0.051-0.87-0.081
		c0-1.262-0.105-2.519,0.017-3.753c0.779-7.849,7.177-16.056,16.999-18.359C71.174,1.452,72.01,1.369,72.887,1.228z"/>
</g>
<g>
	<path d="M126.002,30.076c-1.009-0.981-1.512-2.179-1.512-3.597c0-1.417,0.503-2.628,1.512-3.637
		c1.008-1.008,2.275-1.512,3.801-1.512c1.525,0,2.792,0.478,3.801,1.43c1.008,0.954,1.512,2.14,1.512,3.556
		c0,1.472-0.504,2.712-1.512,3.72c-1.009,1.009-2.276,1.512-3.801,1.512C128.277,31.547,127.009,31.057,126.002,30.076z
		 M125.879,39.885h7.847v43.323h-7.847V39.885z"/>
	<path d="M160.047,80.061c-4.633-2.533-8.271-6.034-10.913-10.504c-2.644-4.468-3.964-9.454-3.964-14.959
		c0-5.502,1.32-10.489,3.964-14.958c2.643-4.468,6.28-7.97,10.913-10.504c4.631-2.534,9.836-3.801,15.613-3.801
		c5.722,0,10.898,1.267,15.53,3.801s8.257,6.022,10.872,10.463c2.616,4.442,3.924,9.441,3.924,14.999c0,5.559-1.308,10.56-3.924,15
		c-2.615,4.442-6.24,7.93-10.872,10.463c-4.632,2.534-9.809,3.802-15.53,3.802C169.882,83.862,164.677,82.595,160.047,80.061z
		 M186.981,73.726c3.351-1.906,5.994-4.536,7.929-7.888c1.934-3.352,2.901-7.098,2.901-11.24c0-4.14-0.968-7.887-2.901-11.239
		c-1.935-3.352-4.578-5.98-7.929-7.888c-3.352-1.907-7.126-2.861-11.321-2.861c-4.197,0-7.998,0.954-11.403,2.861
		c-3.406,1.908-6.077,4.537-8.011,7.888c-1.936,3.352-2.902,7.099-2.902,11.239c0,4.143,0.967,7.889,2.902,11.24
		c1.934,3.352,4.604,5.981,8.011,7.888c3.405,1.908,7.206,2.861,11.403,2.861C179.855,76.587,183.63,75.634,186.981,73.726z"/>
	<path d="M222.702,81.859c-4.006-1.335-7.152-3.065-9.441-5.19l3.024-6.376c2.179,1.962,4.973,3.556,8.379,4.781
		c3.404,1.227,6.907,1.84,10.504,1.84c4.741,0,8.282-0.804,10.626-2.412c2.343-1.606,3.516-3.746,3.516-6.416
		c0-1.962-0.642-3.556-1.922-4.782s-2.86-2.166-4.74-2.82c-1.881-0.653-4.537-1.39-7.971-2.207
		c-4.305-1.034-7.779-2.07-10.422-3.106c-2.644-1.034-4.904-2.628-6.784-4.781c-1.881-2.152-2.82-5.054-2.82-8.706
		c0-3.051,0.804-5.804,2.411-8.256c1.606-2.452,4.047-4.414,7.316-5.885c3.27-1.472,7.328-2.207,12.18-2.207
		c3.378,0,6.702,0.437,9.973,1.308c3.27,0.873,6.075,2.125,8.419,3.76l-2.697,6.54c-2.398-1.525-4.96-2.684-7.684-3.474
		c-2.726-0.79-5.396-1.186-8.011-1.186c-4.633,0-8.106,0.846-10.423,2.534c-2.316,1.69-3.474,3.87-3.474,6.54
		c0,1.961,0.654,3.556,1.962,4.782s2.929,2.18,4.863,2.861c1.934,0.682,4.563,1.404,7.889,2.166
		c4.304,1.036,7.766,2.071,10.381,3.106c2.616,1.035,4.864,2.615,6.744,4.74c1.88,2.126,2.82,4.986,2.82,8.583
		c0,2.998-0.817,5.736-2.453,8.216c-1.635,2.48-4.115,4.442-7.438,5.885c-3.324,1.445-7.411,2.167-12.261,2.167
		C230.862,83.862,226.707,83.195,222.702,81.859z"/>
</g>
</svg>
