<?xml version="1.0" encoding="utf-8"?>
<!-- Generator: Adobe Illustrator 17.0.0, SVG Export Plug-In . SVG Version: 6.00 Build 0)  -->
<!DOCTYPE svg PUBLIC "-//W3C//DTD SVG 1.1//EN" "http://www.w3.org/Graphics/SVG/1.1/DTD/svg11.dtd">
<svg version="1.1" id="Layer_2" xmlns="http://www.w3.org/2000/svg" xmlns:xlink="http://www.w3.org/1999/xlink" x="0px" y="0px"
	 width="627.333px" height="100px" viewBox="0 0 627.333 100" enable-background="new 0 0 627.333 100" xml:space="preserve">
<path d="M43.886,55.363C39.183,67.597,30.86,72.976,19.967,70.838c-9.247-1.815-16.231-10.559-15.96-19.981
	c0.29-10.06,7.603-18.041,17.911-19.549c9.575-1.401,18.275,4.848,21.807,15.569c5.501,0,10.99,0.339,16.4-0.17
	c2.098-0.197,4.359-1.976,5.957-3.61c7.747-7.923,15.299-16.037,22.91-24.094c4.845-5.129,10.65-7.884,17.838-7.656
	c5.178,0.164,10.365-0.009,15.547,0.058c1.42,0.018,2.225-0.321,2.959-1.708c2.692-5.092,8.227-7.422,13.535-5.943
	c5.412,1.508,9.12,6.39,8.984,11.83c-0.137,5.477-4.005,10.169-9.464,11.482c-5.092,1.224-10.484-1.194-13.065-6.117
	c-0.727-1.386-1.525-1.732-2.95-1.711c-5.58,0.083-11.162,0.067-16.743,0.072c-3.86,0.004-7.089,1.312-9.774,4.189
	c-6.799,7.287-13.695,14.483-20.548,21.72c-0.487,0.514-0.936,1.065-1.648,1.881c40.75,0,81.176,0,121.963,0
	c0-3.024,0-6.141,0-9.737c8.181,4.721,15.878,9.162,24.067,13.887c-8.086,4.674-15.851,9.163-23.962,13.851c0-3.457,0-6.459,0-9.649
	c-30.674,0-61.155,0-91.993,0c0.611,0.732,1.011,1.267,1.467,1.751c6.894,7.308,13.818,14.587,20.68,21.924
	c2.178,2.329,4.805,3.857,7.919,3.944c6.517,0.183,13.043,0.056,19.808,0.056c0-2.573,0-5.083,0-7.771c8.081,0,15.92,0,23.929,0
	c0,7.838,0,15.673,0,23.644c-7.867,0-15.652,0-23.713,0c0-2.48,0-4.986,0-7.828c-2.865,0-5.466,0.005-8.067-0.001
	c-3.826-0.009-7.656,0.094-11.476-0.069c-6.049-0.258-10.985-3.013-15.088-7.317c-7.702-8.08-15.389-16.174-23.006-24.334
	c-2.554-2.737-5.611-4.208-9.281-4.22c-14.113-0.048-28.226-0.014-42.338-0.004C44.339,55.227,44.106,55.317,43.886,55.363z"/>
<g>
	<path d="M317.563,41.019c2.891,2.866,4.335,7.114,4.335,12.747v22.603h-7.114V54.58c0-3.804-0.877-6.669-2.631-8.597
		c-1.754-1.927-4.261-2.89-7.521-2.89c-3.607,0-6.473,1.125-8.597,3.372c-2.125,2.249-3.187,5.472-3.187,9.671v20.231h-7.114V54.58
		c0-3.804-0.878-6.669-2.631-8.597c-1.754-1.927-4.261-2.89-7.521-2.89c-3.607,0-6.474,1.125-8.597,3.372
		c-2.125,2.249-3.187,5.472-3.187,9.671v20.231h-7.114V37.091h6.817v5.854c1.433-2.025,3.31-3.569,5.632-4.632
		c2.322-1.062,4.966-1.593,7.93-1.593c3.063,0,5.78,0.618,8.152,1.853c2.371,1.236,4.198,3.039,5.483,5.41
		c1.482-2.272,3.545-4.051,6.188-5.336c2.643-1.284,5.619-1.927,8.93-1.927C310.757,36.72,314.673,38.154,317.563,41.019z"/>
	<path d="M335.126,28.198c-0.914-0.889-1.37-1.976-1.37-3.261c0-1.284,0.456-2.383,1.37-3.298c0.914-0.914,2.063-1.371,3.446-1.371
		c1.383,0,2.531,0.433,3.446,1.297c0.913,0.865,1.371,1.939,1.371,3.224c0,1.334-0.458,2.458-1.371,3.372
		c-0.915,0.915-2.063,1.371-3.446,1.371C337.188,29.532,336.04,29.087,335.126,28.198z M335.016,37.091h7.114v39.277h-7.114V37.091z
		"/>
	<path d="M362.101,74.219c-3.139-1.729-5.596-4.112-7.374-7.151c-1.778-3.038-2.668-6.484-2.668-10.338s0.89-7.3,2.668-10.338
		c1.778-3.038,4.235-5.41,7.374-7.114c3.137-1.705,6.706-2.557,10.708-2.557c3.558,0,6.731,0.717,9.523,2.149
		c2.79,1.434,4.952,3.509,6.484,6.225l-5.41,3.483c-1.235-1.877-2.768-3.285-4.595-4.224c-1.828-0.938-3.854-1.408-6.077-1.408
		c-2.569,0-4.879,0.568-6.929,1.705c-2.051,1.137-3.656,2.754-4.817,4.854c-1.161,2.101-1.741,4.509-1.741,7.226
		c0,2.768,0.58,5.2,1.741,7.3c1.161,2.101,2.767,3.718,4.817,4.854c2.05,1.137,4.359,1.704,6.929,1.704
		c2.224,0,4.249-0.469,6.077-1.408c1.827-0.938,3.359-2.346,4.595-4.224l5.41,3.408c-1.532,2.718-3.694,4.806-6.484,6.263
		c-2.792,1.457-5.966,2.186-9.523,2.186C368.807,76.813,365.237,75.949,362.101,74.219z"/>
	<path d="M410.308,38.499c2.42-1.186,5.359-1.778,8.818-1.778v6.892c-0.396-0.049-0.938-0.074-1.63-0.074
		c-3.854,0-6.881,1.148-9.078,3.446c-2.199,2.297-3.298,5.571-3.298,9.82v19.564h-7.114V37.091h6.817v6.596
		C406.058,41.415,407.886,39.685,410.308,38.499z"/>
	<path d="M433.8,74.219c-3.112-1.729-5.547-4.112-7.3-7.151c-1.754-3.038-2.631-6.484-2.631-10.338s0.877-7.3,2.631-10.338
		c1.753-3.038,4.188-5.41,7.3-7.114s6.62-2.557,10.523-2.557c3.902,0,7.397,0.852,10.486,2.557c3.087,1.705,5.508,4.076,7.262,7.114
		c1.754,3.039,2.631,6.485,2.631,10.338s-0.877,7.3-2.631,10.338c-1.754,3.039-4.175,5.423-7.262,7.151
		c-3.089,1.73-6.584,2.594-10.486,2.594C440.42,76.813,436.912,75.949,433.8,74.219z M451.104,68.847
		c2.001-1.161,3.569-2.791,4.706-4.892c1.136-2.1,1.704-4.508,1.704-7.226c0-2.717-0.568-5.125-1.704-7.226
		c-1.137-2.1-2.705-3.717-4.706-4.854c-2.001-1.136-4.261-1.705-6.78-1.705s-4.78,0.568-6.781,1.705
		c-2.001,1.137-3.582,2.754-4.743,4.854c-1.161,2.101-1.741,4.509-1.741,7.226c0,2.718,0.58,5.126,1.741,7.226
		c1.161,2.101,2.742,3.73,4.743,4.892s4.262,1.741,6.781,1.741S449.103,70.008,451.104,68.847z"/>
	<path d="M479.523,71.032c-3.854-3.952-5.78-9.634-5.78-17.045V24.493h7.41v29.199c0,11.116,4.866,16.674,14.6,16.674
		c4.743,0,8.374-1.371,10.894-4.112c2.52-2.742,3.779-6.93,3.779-12.562V24.493h7.188v29.495c0,7.461-1.927,13.154-5.78,17.082
		s-9.239,5.892-16.155,5.892C488.762,76.961,483.377,74.985,479.523,71.032z"/>
	<path d="M536.622,75.146c-3.631-1.21-6.484-2.779-8.56-4.706l2.742-5.78c1.976,1.778,4.508,3.224,7.596,4.335
		c3.088,1.112,6.263,1.668,9.523,1.668c4.298,0,7.509-0.729,9.634-2.187c2.124-1.456,3.187-3.396,3.187-5.817
		c0-1.778-0.581-3.224-1.741-4.335c-1.162-1.112-2.594-1.964-4.299-2.558c-1.704-0.593-4.112-1.26-7.226-2
		c-3.903-0.938-7.053-1.878-9.448-2.817c-2.396-0.938-4.446-2.383-6.151-4.335c-1.704-1.951-2.557-4.582-2.557-7.893
		c0-2.767,0.729-5.262,2.187-7.485c1.457-2.223,3.668-4.002,6.633-5.336c2.964-1.334,6.644-2.001,11.042-2.001
		c3.063,0,6.077,0.396,9.041,1.186c2.964,0.791,5.508,1.927,7.633,3.409l-2.445,5.929c-2.175-1.382-4.496-2.433-6.966-3.149
		c-2.472-0.716-4.892-1.075-7.263-1.075c-4.2,0-7.35,0.767-9.449,2.297c-2.101,1.532-3.149,3.508-3.149,5.929
		c0,1.778,0.593,3.224,1.778,4.335c1.187,1.112,2.655,1.977,4.41,2.594c1.753,0.619,4.137,1.273,7.151,1.964
		c3.902,0.939,7.04,1.878,9.411,2.816c2.372,0.939,4.409,2.371,6.114,4.298c1.704,1.928,2.557,4.521,2.557,7.782
		c0,2.718-0.741,5.2-2.224,7.447c-1.481,2.249-3.73,4.027-6.743,5.336c-3.015,1.31-6.72,1.964-11.116,1.964
		C544.021,76.961,540.254,76.356,536.622,75.146z"/>
	<path d="M620.844,54.024c1.729,2.199,2.594,4.979,2.594,8.338c0,4.496-1.692,7.954-5.076,10.375
		c-3.385,2.421-8.313,3.631-14.784,3.631h-24.752V24.493h23.27c5.929,0,10.511,1.186,13.747,3.557
		c3.235,2.371,4.854,5.657,4.854,9.856c0,2.718-0.63,5.065-1.89,7.041c-1.261,1.977-2.953,3.483-5.077,4.521
		C616.743,50.307,619.114,51.827,620.844,54.024z M586.236,30.495v16.6h15.191c3.804,0,6.731-0.704,8.782-2.112
		c2.049-1.408,3.075-3.471,3.075-6.188c0-2.717-1.026-4.78-3.075-6.188c-2.051-1.408-4.979-2.112-8.782-2.112H586.236z
		 M612.767,68.29c2.123-1.382,3.187-3.557,3.187-6.521c0-5.78-4.225-8.67-12.673-8.67h-17.044v17.267h17.044
		C607.479,70.365,610.642,69.674,612.767,68.29z"/>
</g>
</svg>
