<?xml version="1.0" encoding="utf-8"?>
<!-- Generator: Adobe Illustrator 17.0.0, SVG Export Plug-In . SVG Version: 6.00 Build 0)  -->
<!DOCTYPE svg PUBLIC "-//W3C//DTD SVG 1.1//EN" "http://www.w3.org/Graphics/SVG/1.1/DTD/svg11.dtd">
<svg version="1.1" id="Layer_1" xmlns="http://www.w3.org/2000/svg" xmlns:xlink="http://www.w3.org/1999/xlink" x="0px" y="0px"
	 width="100px" height="100px" viewBox="0 0 100 100" enable-background="new 0 0 100 100" xml:space="preserve">
<path fill="#FFFFFF" d="M30.096,73.029c-10.869-0.595-17.234-8.618-18.732-14.297c2.945,0.462,5.833,0.38,8.718-0.398
	c-4.635-1.224-8.535-3.563-11.524-7.323c-2.995-3.767-4.483-8.049-4.476-12.999c2.891,1.431,5.76,2.401,9.146,2.441
	c-4.456-3.231-7.333-7.306-8.474-12.489c-1.137-5.163-0.387-10.07,2.227-14.756c11.106,13.025,25.094,20.214,42.212,21.388
	c-0.137-1.369-0.318-2.599-0.374-3.835c-0.226-4.975,1.188-9.445,4.238-13.388c3.03-3.918,6.975-6.457,11.803-7.483
	c5.341-1.135,10.439-0.355,15.102,2.562c1.361,0.851,2.527,2.009,3.818,2.979c0.269,0.202,0.723,0.332,1.045,0.266
	c4.144-0.848,8.046-2.354,11.732-4.426c0.135-0.076,0.28-0.136,0.623-0.302c-1.588,4.775-4.461,8.299-8.467,10.963
	c0.022,0.072,0.043,0.145,0.065,0.217c1.222-0.215,2.454-0.38,3.662-0.657c1.241-0.284,2.468-0.643,3.682-1.031
	c1.208-0.386,2.392-0.849,3.71-1.16c-0.934,1.19-1.841,2.402-2.806,3.565c-1.994,2.403-4.285,4.493-6.761,6.393
	c-0.274,0.21-0.469,0.711-0.46,1.072c0.111,4.702-0.278,9.354-1.282,13.951c-1.163,5.324-2.992,10.408-5.489,15.254
	c-1.906,3.699-4.165,7.169-6.798,10.387c-2.514,3.073-5.233,5.97-8.439,8.327c-2.563,1.884-5.197,3.696-7.934,5.312
	c-4.186,2.471-8.736,4.094-13.453,5.28c-6.598,1.659-13.289,2.084-20.039,1.549c-4.867-0.386-9.605-1.448-14.22-3.085
	c-3.948-1.4-7.699-3.186-11.26-5.381c-0.173-0.106-0.341-0.221-0.722-0.469C11.399,82.498,21.332,79.782,30.096,73.029z"/>
</svg>
